<?xml version="1.0" encoding="UTF-8"?>
<svg width="750px" height="514px" viewBox="0 0 750 514" version="1.1" xmlns="http://www.w3.org/2000/svg" xmlns:xlink="http://www.w3.org/1999/xlink">
    <!-- Generator: Sketch 62 (91390) - https://sketch.com -->
    <title>画板</title>
    <desc>Created with Sketch.</desc>
    <g id="画板" stroke="none" stroke-width="1" fill="none" fill-rule="evenodd">
        <rect id="矩形" fill="#FFA580" opacity="0.1" x="0" y="0" width="750" height="514" rx="61"></rect>
        <g id="编组" transform="translate(72.000000, 53.000000)">
            <g id="router" transform="translate(240.000000, 92.000000)" fill-rule="nonzero">
                <path d="M121,110.968443 C121,113.747631 118.740217,116 115.955783,116 L5.04043578,116 C2.25623783,116 0,113.747631 0,110.968443 L0,85.8021635 C0,83.0227395 2.25623783,80.7703704 5.04043578,80.7703704 L115.955783,80.7703704 C118.739981,80.7703704 121,83.0227395 121,85.8021635 L121,110.968443 L121,110.968443 Z" id="路径" fill="#656D78"></path>
                <path d="M75.1761768,97.9574894 C75.1761768,99.3815037 74.0415301,100.533333 72.6434536,100.533333 C71.2453772,100.533333 70.1107305,99.381262 70.1107305,97.9574894 C70.1107305,96.5337168 71.2453772,95.3777778 72.6434536,95.3777778 C74.0415301,95.3777778 75.1761768,96.533475 75.1761768,97.9574894 Z M59.9874322,97.9574894 C59.9874322,99.3815037 58.8527855,100.533333 57.454709,100.533333 C56.0566325,100.533333 54.9219858,99.381262 54.9219858,97.9574894 C54.9219858,96.5337168 56.0566325,95.3777778 57.454709,95.3777778 C58.8527855,95.3777778 59.9874322,96.533475 59.9874322,97.9574894 Z M90.3644468,97.9574894 C90.3644468,99.3815037 89.2298001,100.533333 87.8317237,100.533333 C86.4336472,100.533333 85.2990005,99.381262 85.2990005,97.9574894 C85.2990005,96.5337168 86.4336472,95.3777778 87.8317237,95.3777778 C89.2298001,95.3777778 90.3644468,96.533475 90.3644468,97.9574894 Z M105.553191,97.9574894 C105.553191,99.3815037 104.418545,100.533333 103.020468,100.533333 C101.622392,100.533333 100.487745,99.381262 100.487745,97.9574894 C100.487745,96.5337168 101.622392,95.3777778 103.020468,95.3777778 C104.418545,95.3777778 105.553191,96.533475 105.553191,97.9574894 Z" id="形状" fill="#CCD1D9"></path>
                <path d="M22.3138667,103.111111 C19.4745972,103.111111 17.1631206,100.796717 17.1631206,97.9574886 C17.1631206,95.114394 19.4745972,92.8 22.3138667,92.8 C25.1495162,92.8 27.4609929,95.114394 27.4609929,97.9574886 C27.4612342,100.796717 25.1495162,103.111111 22.3138667,103.111111 Z" id="路径" fill="#48CFAD"></path>
                <path d="M22.3120567,90.2222222 C18.0431864,90.2222222 14.5886525,93.6846347 14.5886525,97.9554347 C14.5886525,102.226235 18.042945,105.688889 22.3120567,105.688889 C26.5773067,105.688889 30.035461,102.226235 30.035461,97.9554347 C30.035461,93.6846347 26.5773067,90.2222222 22.3120567,90.2222222 Z M22.3120567,100.530675 C20.894088,100.530675 19.7365428,99.3752486 19.7365428,97.9554347 C19.7365428,96.5317541 20.894088,95.3763278 22.3120567,95.3763278 C23.7300255,95.3763278 24.8839504,96.5317541 24.8839504,97.9554347 C24.8841917,99.3752486 23.7300255,100.530675 22.3120567,100.530675 Z" id="形状" fill="#37BC9B"></path>
                <polygon id="路径" fill="#434A54" points="57.4964539 30.0740741 62.6453901 30.0740741 62.6453901 80.7703704 57.4964539 80.7703704"></polygon>
                <path d="M60.0728526,37.8074074 C57.2334083,37.8074074 54.9219858,35.4930134 54.9219858,32.6499188 C54.9219858,29.8068241 57.2334083,27.4962963 60.0728526,27.4962963 C62.9084356,27.4962963 65.2198582,29.8068241 65.2198582,32.6499188 C65.2198582,35.4930134 62.9084356,37.8074074 60.0728526,37.8074074 Z" id="路径" fill="#5D9CEC"></path>
                <path d="M60.929078,24.9185185 C56.6599663,24.9185185 53.2056738,28.3811185 53.2056738,32.6518519 C53.2056738,36.9225852 56.6599663,40.3851852 60.929078,40.3851852 C65.194328,40.3851852 68.6524823,36.9225852 68.6524823,32.6518519 C68.6524823,28.3811185 65.194328,24.9185185 60.929078,24.9185185 Z M60.929078,35.2309185 C59.5111093,35.2309185 58.3533227,34.0755102 58.3533227,32.6518519 C58.3533227,31.2320602 59.5111093,30.0766519 60.929078,30.0766519 C62.3470468,30.0766519 63.5009716,31.2320602 63.5009716,32.6518519 C63.5009716,34.0755102 62.3470468,35.2309185 60.929078,35.2309185 Z" id="形状" fill="#4A89DC"></path>
                <path d="M78.0323901,19.8947483 C77.365346,19.8943761 76.7255142,20.1599189 76.2538427,20.6328851 C75.7821712,21.1058514 75.5173554,21.7474395 75.5177309,22.4163146 C75.5177309,22.9525251 75.6800891,23.447798 75.9675192,23.8545702 C77.6489141,26.601643 78.5487259,29.7741821 78.5487259,33.0794722 C78.5487259,36.3885485 77.6491501,39.5573014 75.9675192,42.3081604 C75.6798532,42.7149326 75.5177309,43.2102055 75.5177309,43.7426298 C75.5177309,45.1363984 76.642437,46.2677409 78.0323901,46.2677409 C78.9284261,46.2677409 79.7137851,45.798261 80.1600332,45.0919114 C82.3318054,41.6091464 83.5851231,37.4903119 83.5851231,33.0792356 C83.5851231,28.6681593 82.3318054,24.5531109 80.1600332,21.0663232 C79.6984609,20.335395 78.8951654,19.8930666 78.0323901,19.8947483 Z M91.9512723,11.4942805 L91.9474965,11.4980667 C91.4900288,10.7590285 90.6837621,10.3099824 89.8163137,10.3111132 C89.1492695,10.3111132 88.5094378,10.5762812 88.0377663,11.0492474 C87.5660947,11.5222137 87.3012789,12.1638018 87.3016492,12.8326769 C87.3016492,13.3651013 87.4640127,13.8568247 87.7441272,14.2635969 C89.067098,16.1549489 90.1868623,18.1813083 91.0847344,20.3088609 C92.788312,24.3538659 93.651074,28.6501752 93.651074,33.0797089 C93.651074,37.512792 92.788312,41.809338 91.0847344,45.8503202 C90.1885099,47.9786769 89.0686514,50.0052067 87.7441272,51.8955842 C87.454932,52.3163296 87.3005755,52.815506 87.3016492,53.3265042 C87.3016492,54.7205093 88.4263606,55.8518519 89.8163137,55.8518519 C90.7158895,55.8518519 91.5050242,55.3785858 91.9474965,54.6649006 L91.9512723,54.6649006 C96.195231,48.5420209 98.6879433,41.1029884 98.6879433,33.0797089 C98.6879433,25.0564294 96.195467,17.6171602 91.9512723,11.4942805 L91.9512723,11.4942805 Z" id="形状" fill="#5D9CEC"></path>
                <path d="M102.524893,1.07801056 L102.521031,1.08177818 C102.053283,0.426918554 101.280218,0 100.401681,0 C98.9837122,0 97.8297872,1.1222801 97.8297872,2.50923558 C97.8297872,3.09415874 98.0334921,3.63128021 98.3728392,4.05443114 C98.384183,4.06903067 98.3955267,4.08009806 98.4068705,4.09116544 C100.775323,7.17418878 102.749625,10.5274699 104.286071,14.0767739 C106.835277,19.956382 108.125085,26.2075716 108.125085,32.649968 C108.125085,39.0961321 106.835277,45.3433186 104.286071,51.2266943 C102.750403,54.7752733 100.776038,58.1274748 98.4068705,61.2087706 C98.3955267,61.2233702 98.384183,61.2344376 98.3728392,61.2455049 C98.0207008,61.687302 97.8296059,62.2310419 97.8297872,62.7907005 C97.8297872,64.1778915 98.9837122,65.3037037 100.401681,65.3037037 C101.28046,65.3037037 102.053524,64.873253 102.521031,64.2219255 L102.524893,64.2256931 C109.27901,55.4209984 113.276596,44.4934846 113.276596,32.649968 C113.276596,20.8099836 109.279251,9.88246986 102.524893,1.07801056 L102.524893,1.07801056 Z" id="路径" fill="#5D9CEC"></path>
                <path d="M42.9676567,19.8947497 C44.3540415,19.8947497 45.4822666,21.0225428 45.4822666,22.4163115 C45.4822666,22.952522 45.3163695,23.447795 45.0324851,23.8545672 C43.3473491,26.6016403 42.4477919,29.7741796 42.4477919,33.0794701 C42.4477919,36.3885467 43.3473491,39.5572999 45.0324851,42.3081591 C45.3259793,42.7285435 45.483043,43.2294636 45.4822666,43.7426287 C45.4822666,45.1363974 44.3540415,46.26774 42.9676567,46.26774 C42.0680994,46.26774 41.2862964,45.79826 40.8365177,45.0919103 C38.6685658,41.6091451 37.414802,37.4903102 37.414802,33.0792335 C37.414802,28.6681567 38.6683299,24.553108 40.8365177,21.06632 C41.2862964,20.3606802 42.0680994,19.8947497 42.9676567,19.8947497 L42.9676567,19.8947497 Z M29.0450494,11.4942764 L29.048825,11.4980625 C29.495064,10.7843772 30.2839464,10.3111111 31.1837397,10.3111111 C32.5701245,10.3111111 33.6983524,11.4389042 33.6983524,12.8326729 C33.6983524,13.3650973 33.5359923,13.8568208 33.2558835,14.263593 C31.93294,16.1549452 30.8131987,18.1813048 29.9153451,20.3088576 C28.2118026,24.3538629 27.3452826,28.6501726 27.3452826,33.0797067 C27.3452826,37.5127903 28.2118026,41.8093367 29.9153451,45.8503193 C30.8115512,47.9786762 31.9313865,50.0052061 33.2558835,51.8955839 C33.5450727,52.3163292 33.699426,52.8155057 33.6983524,53.3265039 C33.6983524,54.7205092 32.5701245,55.8518519 31.1837397,55.8518519 C30.2841824,55.8518519 29.495064,55.3785857 29.048825,54.6649005 L29.0450494,54.6649005 C24.800942,48.5420202 22.3120567,41.102987 22.3120567,33.0797067 C22.3120567,25.0564265 24.800942,17.6171566 29.0450494,11.4942764 Z" id="形状" fill="#5D9CEC"></path>
                <path d="M18.4714121,1.07801546 L18.4788943,1.08178308 C18.958304,0.403029649 19.7497619,-0.00163850561 20.5946571,0 C22.0162683,0 23.1702128,1.12204953 23.1702128,2.50924038 C23.1702128,3.09416349 22.9665031,3.63128492 22.623289,4.05443582 C22.6119451,4.06903535 22.6044629,4.08010273 22.5892572,4.09117012 C20.2233904,7.17520623 18.2504512,10.5283223 16.7138277,14.0767778 C14.164582,19.9563854 12.8708917,26.2075746 12.8708917,32.6499705 C12.8708917,39.0961341 14.1643406,45.3433202 16.7138277,51.2266954 C18.2496726,54.7744257 20.2226743,58.1264618 22.5892572,61.208771 C22.6042216,61.2233705 22.6119451,61.2344379 22.623289,61.2455053 C22.9782255,61.6860646 23.1708716,62.2303395 23.1702128,62.7907007 C23.1702128,64.1778915 22.0162683,65.3037037 20.5946571,65.3037037 C19.7501616,65.3037037 18.9594146,64.899455 18.4788943,64.2219256 L18.4714121,64.2256932 C11.7208107,55.4209991 7.72340426,44.4934862 7.72340426,32.6499705 C7.72340426,20.809987 11.7208107,9.88247409 18.4714121,1.07801546 L18.4714121,1.07801546 Z" id="路径" fill="#5D9CEC"></path>
            </g>
            <g id="摄像头-(1)" transform="translate(511.000000, 327.000000)" fill="#656D78" fill-rule="nonzero">
                <path d="M95.7370715,32.8457735 C94.4903791,35.4799824 92.6499947,37.8022779 90.3546884,39.6375523 C91.2514031,40.4483136 91.5098328,41.7348926 90.9936331,42.8185054 L81.5067564,62.7638631 C80.8517182,64.1408176 79.182336,64.7364741 77.7779411,64.0943513 L69.7161367,60.4086683 C67.2156976,62.9050455 63.3819025,63.5848229 60.1481636,62.1051836 L44.0368651,54.7397469 L38.5818084,65.4347922 C37.1637537,68.2381827 34.2435914,70.00728 31.0521521,69.9964204 L16.835443,69.9964204 L16.835443,72.7473947 C16.8299082,77.3033049 13.0642978,80.9950991 8.41782947,81 L2.80587117,81 C2.06176514,81 1.34811301,80.7102761 0.821910093,80.194408 C0.295707175,79.67854 0,78.9788412 0,78.2492375 L0,50.7402356 C0,49.2208973 1.25622514,47.9892613 2.80576318,47.9892613 L8.4176135,47.9892613 C11.9831187,47.9935187 15.1604021,50.1965064 16.3528599,53.4912099 L25.8491313,53.4912099 L28.7719498,47.7611958 L14.3736107,41.1785299 C7.36249623,37.9732245 4.31830311,29.7733475 7.58775205,22.8997234 L14.7028556,7.94057275 C17.9723046,1.06694868 26.3361418,-1.91685576 33.3469322,1.28760261 L94.3798134,29.1894193 C95.0543103,29.497792 95.5762402,30.0562631 95.8307774,30.7419678 C96.0853146,31.4276724 96.0516074,32.1844376 95.7370715,32.8457735 Z M8.41782947,53.4909981 L5.61185032,53.4909981 L5.61185032,75.4981573 L8.4176135,75.4981573 C9.96652054,75.4965819 11.2218071,74.2659023 11.2235927,72.747183 L11.2235927,56.2419724 C11.2218073,54.7233356 9.96665217,53.4926902 8.41782947,53.4909981 L8.41782947,53.4909981 Z M77.6064616,57.9454759 L84.7219971,42.9865369 L84.4605664,42.8672102 C82.4047687,43.5808603 80.242165,43.9540333 78.0614006,43.9714327 L72.5204961,55.6205627 L77.6064616,57.9454759 Z M27.5830396,58.9926291 L16.835443,58.9926291 L16.835443,64.4943838 L31.0521521,64.4943838 C32.1160552,64.4981186 33.089588,63.9084486 33.5623615,62.9739291 L38.9490639,52.4132456 L33.8599669,50.0867442 L30.0927091,57.4720863 C29.617335,58.4040442 28.6457706,58.9926895 27.5830396,58.9926291 Z M16.2311613,17.7454848 L12.6737175,25.2249542 C10.7147849,29.3559593 12.5359807,34.2621862 16.7447359,36.1921111 L62.5198287,57.1187648 C63.1941813,57.4274698 63.9660215,57.4607086 64.66538,57.2111614 C65.3647385,56.9616143 65.9342627,56.449746 66.2485361,55.7882766 L72.2614411,43.146204 C71.3631878,42.8788167 70.48538,42.5493759 69.6346084,42.1603552 L16.2311613,17.7454848 Z M30.975267,6.27402147 C26.7617839,4.35310731 21.757596,6.13875914 19.7888211,10.2656977 L18.6030425,12.75896 L72.0061656,37.1731952 C78.0493086,39.9335846 85.238933,38.1471409 89.2119956,32.8979724 C75.261269,26.5201508 64.798224,21.7367847 57.8228606,18.5478739 C51.8567287,15.8203511 42.9075309,11.729067 30.975267,6.27402147 Z M59.8055285,49.8071151 L49.6333816,45.1567594 C48.7249578,44.7413024 48.1115889,43.8822113 48.024325,42.9030974 C47.9370611,41.9239836 48.3891597,40.9735977 49.2103196,40.4099409 C50.0314795,39.8462841 51.096947,39.7549893 52.0053708,40.1704464 L62.1775177,44.8208021 C63.0859414,45.2362592 63.6993103,46.0953503 63.7865742,47.0744641 C63.8738381,48.0535779 63.4217395,49.0039638 62.6005796,49.5676206 C61.7794197,50.1312774 60.7139523,50.2225722 59.8055285,49.8071151 L59.8055285,49.8071151 Z M30.4741106,36.1147128 C28.9246041,36.1145959 27.668572,34.8828694 27.6686714,33.363562 C27.6687708,31.8442547 28.9249641,30.6126862 30.4744706,30.6127642 C32.0239771,30.6128422 33.2800414,31.844537 33.2799818,33.3638444 C33.2798625,34.8831827 32.0236487,36.1147713 30.4741106,36.1147128 L30.4741106,36.1147128 Z M20.3036915,31.4638277 C18.7541991,31.4637107 17.4981728,30.2320058 17.4982523,28.7127122 C17.4983318,27.1934186 18.754487,25.9618791 20.3039795,25.9618791 C21.8534719,25.9618791 23.1095627,27.1935598 23.1095627,28.7128534 C23.1094434,30.2322088 21.853247,31.4638277 20.3036915,31.4638277 L20.3036915,31.4638277 Z" id="形状"></path>
            </g>
            <g id="终端" transform="translate(0.000000, 327.000000)" fill-rule="nonzero">
                <line x1="13.7142857" y1="74.9680851" x2="78" y2="74.9680851" id="路径" fill="#FFFFFF"></line>
                <polygon id="路径" fill="#D8E3F0" points="57.7714285 56.8723404 33.0857143 56.8723404 30 68.0744681 60.8571429 68.0744681"></polygon>
                <path d="M85.3232547,1.72340426 L28.0292198,1.72340426 L28.0292198,47.8892385 L2.57149847,47.8892385 L2.57149847,54.294748 C2.5664803,54.9765931 2.83184166,55.6322737 3.30874352,56.116227 C3.78564538,56.6001804 4.43462452,56.8723404 5.11160584,56.8723404 L68.7652786,56.8723404 L68.7652786,39.9063963 C68.7652786,39.2227763 69.0349009,38.5671556 69.5148315,38.0837632 C69.9947622,37.6003709 70.6456879,37.3288039 71.3244123,37.3288039 L89.1428571,37.3288039 L89.1428571,5.57055707 C89.1428571,4.55022869 88.7404359,3.5716903 88.0241215,2.85020919 C87.3078071,2.12872808 86.3362763,1.72340426 85.3232547,1.72340426 Z M74.189114,23.209782 C71.6074323,23.2175384 69.2756588,21.6571452 68.2823314,19.2570092 C67.289004,16.8568732 67.8300175,14.0903266 69.6528113,12.2488717 C71.4756052,10.4074168 74.2207052,9.85420803 76.606621,10.8474989 C78.9925367,11.8407898 80.5487519,14.1846928 80.5487519,16.7850077 C80.5383334,20.321445 77.7001789,23.1886554 74.189114,23.209782 L74.189114,23.209782 Z" id="形状" fill="#EDF4FF"></path>
                <path d="M47.4327314,48.2553191 L68.7652453,48.2553191 L68.7652453,40.2091755 C68.7652453,39.5201346 69.0348679,38.859315 69.5147994,38.3720895 C69.9947308,37.884864 70.6456576,37.6111436 71.3243831,37.6111436 L89.1428571,37.6111436 L89.1428571,5.60106379 C89.1368682,4.38736972 88.5714564,3.24653475 87.6150136,2.51832443 L59.5026945,2.51832443 L47.4327314,48.2553191 Z M74.1699915,10.4480217 C76.751689,10.4480217 79.0788105,12.0280077 80.0649898,14.4501889 C81.051169,16.8723701 80.501921,19.6591952 78.6736503,21.5096952 C76.8453796,23.3601951 74.0986405,23.9094319 71.7156886,22.9010061 C69.3327367,21.8925803 67.7835154,19.5253643 67.7912163,16.9044415 C67.7912163,15.1853837 68.4664877,13.5372938 69.667427,12.3253812 C70.8683663,11.1134686 72.4957977,10.4378136 74.1890895,10.4480217 L74.1699915,10.4480217 Z M6.39103712,1.72340426 L28.0291197,1.72340426 L28.0291197,48.2553191 L2.57142857,48.2553191 L2.57142857,5.60106379 C2.57142857,3.45949156 4.28152557,1.72340426 6.39103712,1.72340426 Z" id="形状" fill="#D8E3F0"></path>
                <path d="M68.5714286,48.2553191 L2.57142857,48.2553191 L2.57142857,54.3997904 C2.56642509,55.0538489 2.83100962,55.6828091 3.30651536,56.1470403 C3.78202111,56.6112715 4.42910038,56.8723404 5.10409986,56.8723404 L68.5714286,56.8723404 L68.5714286,48.2553191 Z" id="路径" fill="#96DDFF"></path>
                <polygon id="路径" fill="#69BAF9" points="68.5714286 48.2553191 52.8401786 48.2553191 50.5714286 56.7221527 50.5714286 56.8723404 68.5714286 56.8723404"></polygon>
                <path d="M71.1428571,74.106383 L19.7142857,74.106383 C19.7142857,70.7750484 22.5892176,68.0744681 26.1356259,68.0744681 L64.7022336,68.0744681 C68.2517747,68.0744681 71.1322298,70.7721204 71.1428571,74.106383 Z" id="路径" fill="#EDF4FF"></path>
                <polygon id="路径" fill="#EDF4FF" points="68.5714286 37.9148936 94.2857143 37.9148936 94.2857143 79.2765957 68.5714286 79.2765957"></polygon>
                <polygon id="路径" fill="#D8E3F0" points="77.1428571 70.6595745 85.8824721 37.9148936 93.4285714 37.9148936 93.4285714 70.6595745 77.1428571 70.6595745"></polygon>
                <path d="M68.5714286,71.5212766 L94.2857143,71.5212766 L94.2857143,75.9568479 C94.2857143,77.3143891 93.1378985,78.4148936 91.7219961,78.4148936 L71.1544229,78.4148936 C69.7385205,78.4148936 68.5907047,77.3143891 68.5907047,75.9568479 L68.5907047,71.5212766 L68.5714286,71.5212766 Z" id="路径" fill="#96DDFF"></path>
                <path d="M79.7142857,78.4148936 L91.7299925,78.4148936 C92.407812,78.4148936 93.0578699,78.1574259 93.5371607,77.6991303 C94.0164515,77.2408347 94.2857143,76.6192524 94.2857143,75.9711245 L94.2857143,71.5212766 L81.6215408,71.5212766 L79.7142857,78.4148936 Z" id="路径" fill="#69BAF9"></path>
                <path d="M67.7142857,16.8031915 C67.7142857,20.3724786 70.5924552,23.2659574 74.1428571,23.2659574 C77.6932591,23.2659574 80.5714286,20.3724786 80.5714286,16.8031915 C80.5714286,13.2339044 77.6932591,10.3404255 74.1428571,10.3404255 C70.5924552,10.3404255 67.7142857,13.2339044 67.7142857,16.8031915 L67.7142857,16.8031915 Z" id="路径" fill="#FFC670"></path>
                <path d="M91.5072038,35.8258065 L90.8736044,35.8258065 L90.8736044,5.80645161 C90.8736044,2.59963694 88.2947667,0 85.1136093,0 L5.76007695,0 C2.5789195,0 4.05998665e-05,2.59963694 4.05998665e-05,5.80645161 L4.05998665e-05,54.8322581 C-0.00502461141,56.0316489 0.464044074,57.1836815 1.30356021,58.0336008 C2.14307634,58.8835201 3.28387242,59.3613014 4.47367801,59.3612904 L30.6048558,59.3612904 L28.6848574,66.5225807 L26.2272595,66.5225807 C22.3822512,66.5270968 19.0444121,69.1948708 18.1632664,72.967742 L13.4400704,72.967742 C12.3798661,72.9680007 11.5205368,73.8344706 11.5205368,74.9032259 C11.5205368,75.9719812 12.3798661,76.838451 13.4400704,76.8387097 L66.5856251,76.8387097 C66.7659643,79.1849209 68.7056075,80.9969328 71.0400213,81 L91.5072038,81 C93.9885066,81 96,78.9722832 96,76.4709677 L96,40.3548387 C96,39.1536647 95.5266532,38.0016876 94.6840905,37.1523293 C93.8415277,36.302971 92.6987675,35.8258065 91.5072038,35.8258065 Z M29.4336568,3.87096782 L85.1136093,3.87096782 C86.1739951,3.87096782 87.0336077,4.73751341 87.0336077,5.80645161 L87.0336077,35.8258065 L71.0400213,35.8258065 C69.8484577,35.8258065 68.7056974,36.302971 67.8631347,37.1523293 C67.020572,38.0016876 66.5472252,39.1536647 66.5472252,40.3548387 L66.5472252,46.4516129 L29.4336568,46.4516129 L29.4336568,3.87096782 Z M66.5472252,66.7548388 C65.9174815,66.6074209 65.2736903,66.5295429 64.6272268,66.5225807 L62.2464288,66.5225807 L60.3264305,59.3612904 L66.624025,59.3612904 L66.5472252,66.7548388 Z M3.84007855,5.80645161 C3.84007855,4.73751341 4.69969116,3.87096782 5.76007695,3.87096782 L25.5936601,3.87096782 L25.5936601,46.4516129 L3.84007855,46.4516129 L3.84007855,5.80645161 Z M4.47367801,55.4903227 C4.12066646,55.4798517 3.84007849,55.1882708 3.84007849,54.8322581 L3.84007849,50.3225807 L66.5472252,50.3225807 L66.5472252,55.4903227 L4.47367801,55.4903227 Z M58.2336322,66.5225807 L32.6016541,66.5225807 L34.5216525,59.3612904 L56.3136338,59.3612904 L58.2336322,66.5225807 Z M26.2080595,70.3935295 L64.6080268,70.3935295 C65.2734195,70.391574 65.9303496,70.5438866 66.5280252,70.8387097 L66.5280252,72.967742 L22.195263,72.967742 C22.9350572,71.3982834 24.5035348,70.3969023 26.2272595,70.3935295 L26.2080595,70.3935295 Z M92.1408033,76.4709677 C92.1408033,76.8344067 91.8485351,77.1290323 91.4880039,77.1290323 L71.0400213,77.1290323 C70.6794902,77.1290323 70.3872219,76.8344068 70.3872219,76.4709677 L70.3872219,73.683871 L92.1600033,73.683871 L92.1408033,76.4709677 Z M92.1408033,69.8903227 L70.3872219,69.8903227 L70.3872219,40.3548387 C70.3872219,39.9913997 70.6794902,39.6967743 71.0400213,39.6967743 L91.5072038,39.6967743 C91.867735,39.6967743 92.1600033,39.9913997 92.1600033,40.3548387 L92.1408033,69.8903227 Z" id="形状" fill="#656D78"></path>
                <path d="M84.654575,42.6570231 L76.9853044,42.6570231 C75.9265804,42.6572821 75.0684508,43.5246303 75.0684508,44.594469 C75.0684508,45.6643077 75.9265804,46.5316559 76.9853044,46.5319149 L84.654575,46.5319149 C85.713299,46.5316559 86.5714286,45.6643077 86.5714286,44.594469 C86.5714286,43.5246303 85.713299,42.6572821 84.654575,42.6570231 L84.654575,42.6570231 Z M20.7503774,10.3404255 L15.6311393,10.3404255 C14.5724152,10.3406845 13.7142857,11.2080327 13.7142857,12.2778714 C13.7142857,13.3477101 14.5724152,14.2150583 15.6311393,14.2153173 L20.7503774,14.2153173 C21.8091015,14.2150583 22.667231,13.3477101 22.667231,12.2778714 C22.667231,11.2080327 21.8091015,10.3406845 20.7503774,10.3404255 Z" id="形状" fill="#3D3D63"></path>
                <path d="M7.71428571,12.0638298 C7.71413749,12.6794931 8.04084606,13.2484533 8.57130878,13.556328 C9.10177151,13.8642027 9.75537135,13.8642027 10.2858341,13.556328 C10.8162968,13.2484533 11.1430054,12.6794931 11.1428571,12.0638298 C11.1430054,11.4481664 10.8162968,10.8792063 10.2858341,10.5713316 C9.75537135,10.2634569 9.10177151,10.2634569 8.57130878,10.5713316 C8.04084606,10.8792063 7.71413749,11.4481664 7.71428571,12.0638298 Z" id="路径" fill="#3D3D63"></path>
                <path d="M21.3074334,20.6808511 L16.4068523,20.6808511 C15.3931758,20.6808511 14.5714286,21.5494376 14.5714286,22.6208934 C14.5714286,23.6923492 15.3931758,24.5609357 16.4068523,24.5609357 L21.3074334,24.5609357 C22.32111,24.5609357 23.1428571,23.6923492 23.1428571,22.6208934 C23.1428571,21.5494376 22.32111,20.6808511 21.3074334,20.6808511 Z M21.3074334,27.1411919 L16.4068523,27.1411919 C15.3931758,27.1411919 14.5714286,28.0097785 14.5714286,29.0812343 C14.5714286,30.1526901 15.3931758,31.0212766 16.4068523,31.0212766 L21.3074334,31.0212766 C22.32111,31.0212766 23.1428571,30.1526901 23.1428571,29.0812343 C23.1428571,28.0097785 22.32111,27.1411919 21.3074334,27.1411919 L21.3074334,27.1411919 Z" id="形状" fill="#3D3D63"></path>
                <path d="M7.71428571,22.4042553 C7.71413749,23.0199187 8.04084606,23.5888788 8.57130878,23.8967535 C9.10177151,24.2046283 9.75537135,24.2046283 10.2858341,23.8967535 C10.8162968,23.5888788 11.1430054,23.0199187 11.1428571,22.4042553 C11.1430054,21.788592 10.8162968,21.2196318 10.2858341,20.9117571 C9.75537135,20.6038824 9.10177151,20.6038824 8.57130878,20.9117571 C8.04084606,21.2196318 7.71413749,21.788592 7.71428571,22.4042553 Z" id="路径" fill="#3D3D63"></path>
                <path d="M73.995601,25.4395935 C78.5741042,25.4395935 82.2857143,21.6737324 82.2857143,17.0283073 C82.2857143,12.3828823 78.574104,8.61702128 73.9956008,8.61702128 C69.4170976,8.61702128 65.7054874,12.3828824 65.7054874,17.0283074 C65.7054874,19.2591192 66.5789076,21.3985628 68.1336055,22.9759849 C69.6883034,24.553407 71.7969262,25.4395935 73.995601,25.4395935 Z M73.995601,12.5125709 C75.8051948,12.5125709 77.436236,13.6196423 78.1269395,15.3166801 C78.8176431,17.0137179 78.4317132,18.965864 77.1494001,20.2613601 C75.8670869,21.5568561 73.9414282,21.940063 72.2718112,21.2320024 C70.6021942,20.5239417 69.518083,18.8643345 69.5257752,17.0283074 C69.5363341,14.5312032 71.5344475,12.5125709 73.995601,12.5125709 L73.995601,12.5125709 Z M37.0530216,20.4005742 L48.5140079,20.4005742 C49.568782,20.4003152 50.42371,19.5326811 50.42371,18.4624899 C50.42371,17.3922986 49.568782,16.5246646 48.5140079,16.5244055 L37.0530216,16.5244055 C35.9982475,16.5246646 35.1433195,17.3922986 35.1433195,18.4624899 C35.1433195,19.5326811 35.9982475,20.4003152 37.0530216,20.4005742 L37.0530216,20.4005742 Z M54.034383,22.9782265 L37.0530216,22.9782265 C35.9982475,22.9784855 35.1433195,23.8461196 35.1433195,24.9163108 C35.1433195,25.9865021 35.9982475,26.8541361 37.0530216,26.8543952 L54.034383,26.8543952 C55.0891571,26.8541361 55.9440851,25.9865021 55.9440851,24.9163108 C55.9440851,23.8461196 55.0891571,22.9784855 54.034383,22.9782265 L54.034383,22.9782265 Z M59.7648762,9.93491861 L37.0530216,9.93491861 C35.9982475,9.93517766 35.1433195,10.8028117 35.1433195,11.873003 C35.1433195,12.9431942 35.9982475,13.8108283 37.0530216,13.8110873 L59.7648762,13.8110873 C60.8196503,13.8108283 61.6745783,12.9431942 61.6745783,11.873003 C61.6745783,10.8028117 60.8196503,9.93517766 59.7648762,9.93491861 Z M47.5589258,38.3472354 L37.0530216,38.3472354 C35.9980669,38.3472354 35.1428571,39.2149454 35.1428571,40.2853198 C35.1428571,41.3556943 35.9980669,42.2234043 37.0530216,42.2234043 L47.5589258,42.2234043 C48.6138804,42.2234043 49.4690902,41.3556943 49.4690902,40.2853198 C49.4690902,39.2149454 48.6138804,38.3472354 47.5589258,38.3472354 Z M37.0530216,35.7695833 L41.5228062,35.7695833 C42.5777609,35.7695833 43.4329707,34.9018734 43.4329707,33.8314989 C43.4329707,32.7611244 42.5777609,31.8934145 41.5228062,31.8934145 L37.0530216,31.8934145 C35.9980669,31.8934145 35.1428571,32.7611244 35.1428571,33.8314989 C35.1428571,34.9018734 35.9980669,35.7695833 37.0530216,35.7695833 Z" id="形状" fill="#3D3D63"></path>
            </g>
            <g id="充电桩" transform="translate(165.000000, 327.000000)" fill-rule="nonzero">
                <path d="M28.4050633,57.7979883 L28.4050633,46.6607007 L26.2403348,46.6607007 L26.2403348,43.9468085 L20.2406778,43.9468085 L20.2406778,46.6607007 L18.0759494,46.6607007 L18.0759494,62.0425532 L28.4050633,62.0425532 L28.4050633,57.7979883 Z M26.7162018,56.0982842 L19.7554801,56.0982842 L19.7554801,52.5580165 L26.7162018,52.5580165 L26.7162018,56.0982842 Z M21.9202086,45.637122 L24.5421426,45.637122 L24.5421426,46.6513101 L21.9202086,46.6513101 L21.9202086,45.637122 Z M19.7554801,48.3510141 L26.7162018,48.3510141 L26.7162018,50.8489218 L19.7554801,50.8489218 L19.7554801,48.3510141 L19.7554801,48.3510141 Z M19.7554801,60.3428491 L19.7554801,57.7979883 L26.7162018,57.7979883 L26.7162018,60.3428491 L19.7554801,60.3428491 L19.7554801,60.3428491 Z" id="形状" fill="#37BC9B"></path>
                <path d="M68,2.78284563 L63.5606317,2.78284563 L63.5606317,0 L61.8251551,0 L61.8251551,2.78284563 L56.3023125,2.78284563 L56.3023125,0 L54.5668359,0 L54.5668359,2.78284563 L50.6548223,2.78284563 L50.6548223,4.51972515 L52.3902989,4.51972515 L52.3902989,11.6495676 C52.3902989,15.2096908 55.0846024,18.1556688 58.5459673,18.5395095 L58.5459673,58.3821822 C58.5459673,60.6756308 56.6762549,62.5468546 54.3846588,62.5468546 C52.0930626,62.5468546 50.2233503,60.6756308 50.2233503,58.3821822 L50.2233503,35.4380998 C50.2233503,31.9643407 47.4043993,29.143111 43.9334461,29.143111 L41.3637902,29.143111 L41.3637902,19.4607274 C41.3637902,9.40409904 33.1945854,1.22829049 23.1460801,1.22829049 C13.0975747,1.22829049 4.92836999,9.40409904 4.92836999,19.4607274 C4.92836999,20.4587134 5.01466441,21.4375074 5.16807671,22.3971093 L5.16807671,71.9509537 L4.52566272,71.9509537 C1.9464185,71.9509537 0,73.8029854 0,76.2595664 C0,78.8312996 2.07106599,81 4.52566272,81 L42.0062042,81 C44.499154,81 46.5318669,78.9656439 46.5318669,76.4706788 C46.5318669,73.9757138 44.499154,71.9413577 42.0062042,71.9413577 L41.3637902,71.9413577 L41.3637902,30.8799905 L43.9334461,30.8799905 C46.4455725,30.8799905 48.4878737,32.9239427 48.4878737,35.4380998 L48.4878737,58.3821822 C48.4878737,61.6352328 51.1342358,64.2837342 54.3846588,64.2837342 C57.6350818,64.2837342 60.2814439,61.6352328 60.2814439,58.3821822 L60.2814439,18.5203175 C63.6469261,18.0501125 66.2549351,15.1521147 66.2549351,11.6495676 L66.2549351,4.51972515 L68,4.51972515 L68,2.78284563 Z M23.1556684,2.96517 C32.2453469,2.96517 39.6379019,10.363701 39.6379019,19.4607274 C39.6379019,28.5577538 32.2453469,35.9562848 23.1556684,35.9562848 C14.0659898,35.9562848 6.67343486,28.5481578 6.67343486,19.4607274 C6.67343486,10.373297 14.0659898,2.96517 23.1556684,2.96517 Z M44.8059786,76.4706788 C44.8059786,78.0060419 43.5595037,79.2631205 42.0157924,79.2631205 L4.53525099,79.2631205 C3.04906937,79.2631205 1.74506486,77.8621016 1.74506486,76.2595664 C1.74506486,74.7721834 2.91483362,73.6877782 4.53525099,73.6877782 L42.0157924,73.6877782 C43.5499154,73.6782372 44.8059786,74.9257197 44.8059786,76.4706788 L44.8059786,76.4706788 Z M6.91314157,71.9413577 L6.91314157,27.7037081 C9.92385787,33.6244521 16.0795262,37.6931643 23.1556684,37.6931643 C30.4331641,37.6931643 36.7230682,33.4037436 39.6379019,27.2239071 L39.6379019,71.9509537 L6.91314157,71.9509537 L6.91314157,71.9413577 Z M64.5290468,11.6495676 C64.5290468,14.5187774 62.1990976,16.8506101 59.3322053,16.8506101 C56.465313,16.8506101 54.1353638,14.5187774 54.1353638,11.6495676 L54.1353638,4.51972515 L64.5290468,4.51972515 L64.5290468,11.6495676 L64.5290468,11.6495676 Z" id="形状" fill="#656D78"></path>
                <path d="M12.9113924,66.3258875 L15.6889693,66.3258875 L15.6889693,68.0744681 L12.9113924,68.0744681 L12.9113924,66.3258875 Z M17.3863773,66.3258875 L20.1639542,66.3258875 L20.1639542,68.0744681 L17.3863773,68.0744681 L17.3863773,66.3258875 Z M21.8517179,66.3258875 L24.6292948,66.3258875 L24.6292948,68.0744681 L21.8517179,68.0744681 L21.8517179,66.3258875 Z M26.3267028,66.3258875 L29.1042797,66.3258875 L29.1042797,68.0744681 L26.3267028,68.0744681 L26.3267028,66.3258875 Z M30.7920434,66.3258875 L33.5696203,66.3258875 L33.5696203,68.0744681 L30.7920434,68.0744681 L30.7920434,66.3258875 Z M19.8360458,26.4949619 L21.0223026,27.7701698 L31.6986136,17.8583265 L19.1898734,17.8583265 L23.3658831,12.2454796 L21.9674503,11.2021277 L15.7179024,19.606907 L27.2525618,19.606907 L19.8360458,26.4949619 Z" id="形状" fill="#37BC9B"></path>
            </g>
            <g id="自助机-(1)" transform="translate(397.000000, 328.000000)" fill-rule="nonzero">
                <path d="M6.2745098,0 L33.7254902,0 C37.1908063,0 40,2.83319807 40,6.328125 L40,81 L0,81 L0,6.328125 C0,2.83319807 2.80919373,0 6.2745098,0 Z" id="路径" fill="#5D9CEC"></path>
                <polygon id="路径" fill="#EFEFEF" points="3.40425532 5.17021277 35.7446809 5.17021277 35.7446809 51.7021277 3.40425532 51.7021277"></polygon>
                <polygon id="路径" fill="#DBDBDB" points="4.25531915 6.03191489 34.893617 6.03191489 34.893617 49.9787234 4.25531915 49.9787234"></polygon>
                <path d="M8.5106383,11.2021277 L17.654421,11.2021277 L17.654421,18.7098855 L8.5106383,18.7098855 L8.5106383,11.2021277 Z M22.345579,11.2021277 L31.4893617,11.2021277 L31.4893617,18.7098855 L22.345579,18.7098855 L22.345579,11.2021277 Z M8.5106383,24.2514402 L17.654421,24.2514402 L17.654421,31.7591981 L8.5106383,31.7591981 L8.5106383,24.2514402 Z M22.345579,24.2514402 L31.4893617,24.2514402 L31.4893617,31.7591981 L22.345579,31.7591981 L22.345579,24.2514402 Z M8.5106383,37.3007528 L17.654421,37.3007528 L17.654421,44.8085106 L8.5106383,44.8085106 L8.5106383,37.3007528 Z M22.345579,37.3007528 L31.4893617,37.3007528 L31.4893617,44.8085106 L22.345579,44.8085106 L22.345579,37.3007528 Z" id="形状" fill="#C0EDFF"></path>
                <path d="M3.40425532,56.0288167 L17.1760155,56.0288167 L17.1760155,62.0425532 L3.40425532,62.0425532 L3.40425532,56.0288167 Z M22.4371373,56.0106383 L35.7446809,56.0106383 L35.7446809,57.1674439 L22.4371373,57.1674439 L22.4371373,56.0106383 Z M22.4371373,58.4481929 L35.7446809,58.4481929 L35.7446809,59.6049985 L22.4371373,59.6049985 L22.4371373,58.4481929 Z M22.4371373,60.8857476 L35.7446809,60.8857476 L35.7446809,62.0425532 L22.4371373,62.0425532 L22.4371373,60.8857476 Z" id="形状" fill="#EFEFEF"></path>
            </g>
            <g id="云端" transform="translate(488.000000, 0.000000)" fill-rule="nonzero">
                <path d="M96.5970143,26.7005547 C97.062068,28.0212506 96.3634974,29.4672444 95.0365104,29.9301426 C93.7095234,30.3930408 92.2567965,29.697708 91.7918842,28.3768713 C86.9151857,14.5279366 73.7433331,5.06822863 58.7640229,5.06822863 C43.5315357,5.06822863 30.1879753,14.8493467 25.512404,29.0339108 C25.073941,30.3636169 23.635641,31.0879513 22.2996018,30.6516612 C20.9637041,30.2152304 20.235997,28.7835966 20.6743185,27.4538905 C26.0310633,11.2031786 41.3147517,0 58.7641644,0 C75.9233428,0 91.0105715,10.8353097 96.5970143,26.7005547 Z" id="路径" fill="#656D78"></path>
                <path d="M73.614545,82.0763359 C72.2023757,82.0763359 71.057554,80.9444857 71.057554,79.5481767 C71.057554,78.1521485 72.2023757,77.0201579 73.614545,77.0201579 L89.8721783,77.0201579 C103.134439,77.0201579 113.886018,66.3867492 113.886018,53.2691408 C113.886018,41.5625881 105.265407,31.6509288 93.7048238,29.8183961 C92.3105534,29.5974753 91.3613415,28.3007422 91.5849362,26.9221293 C91.8083888,25.5435164 93.1199831,24.6052001 94.5143956,24.8261208 C108.546168,27.0502155 119,39.0698212 119,53.2691408 C119,69.1786651 105.959346,82.0763359 89.8721783,82.0763359 L73.614545,82.0763359 L73.614545,82.0763359 Z" id="路径" fill="#656D78"></path>
                <path d="M30.1016278,52.8632871 C28.5765456,52.8632871 27.340248,54.0762686 27.340248,55.5725883 C27.340248,57.0687696 28.5766867,58.2817511 30.1016278,58.2817511 L87.1861419,58.2817511 C88.7112242,58.2817511 89.9475218,57.0687696 89.9475218,55.5725883 C89.9475218,54.0762686 88.7110831,52.8632871 87.1861419,52.8632871 L30.1016278,52.8632871 Z M30.1016278,47.8778626 L87.1861419,47.8778626 C91.5174885,47.8778626 95.028777,51.3227909 95.028777,55.5725883 C95.028777,59.8222473 91.5174885,63.2671756 87.1861419,63.2671756 L30.1016278,63.2671756 C25.7702813,63.2671756 22.2589928,59.8222473 22.2589928,55.5725883 C22.2589928,51.3227909 25.7702813,47.8778626 30.1016278,47.8778626 Z" id="形状" fill="#5D9CEC"></path>
                <path d="M22.3984671,26.5672243 C23.7592719,26.256952 25.1124971,27.1154614 25.4207309,28.4846419 C25.7291052,29.8539636 24.8758476,31.2153768 23.5150428,31.525649 C12.7942315,33.9694138 5.05301401,43.6049423 5.05301401,54.8190885 C5.05301401,68.0095434 15.6764145,78.7021442 28.7805642,78.7021442 L42.8475937,78.7021442 C44.242787,78.7021442 45.3741007,79.8402799 45.3741007,81.2442019 C45.3741007,82.6479826 44.242787,83.7862595 42.8475937,83.7862595 L28.7805642,83.7862595 C12.8851857,83.7862595 0,70.8169637 0,54.8190885 C0,41.2173852 9.38737713,29.5330995 22.3984671,26.5672243 Z" id="路径" fill="#656D78"></path>
                <path d="M57.3597122,62.408835 C57.3597122,60.994314 58.5096175,59.8473282 59.9280576,59.8473282 C61.3464976,59.8473282 62.4964029,60.994314 62.4964029,62.408835 L62.4964029,87.2094856 C62.4964029,88.6240066 61.3464976,89.7709924 59.9280576,89.7709924 C58.5096175,89.7709924 57.3597122,88.6240066 57.3597122,87.2094856 L57.3597122,62.408835 L57.3597122,62.408835 Z" id="路径" fill="#007BFF"></path>
                <path d="M59.0720131,112 C51.6991156,112 45.7224814,106.066664 45.7224814,98.7480916 C45.7224814,91.4295197 51.6991156,85.4961832 59.0720131,85.4961832 C66.4449106,85.4961832 72.4214035,91.4295197 72.4214035,98.7480916 C72.4214035,106.066664 66.4449106,112 59.0720131,112 L59.0720131,112 Z M59.0720131,106.949516 C63.6338653,106.949516 67.3322594,103.277814 67.3322594,98.7480916 C67.3322594,94.2183688 63.633724,90.546667 59.0720131,90.546667 C54.5101609,90.546667 50.8116254,94.2183688 50.8116254,98.7480916 C50.8116254,103.277814 54.5101609,106.949516 59.0720131,106.949516 Z M102.425583,108.402232 C97.0542746,108.402232 92.7002291,104.079859 92.7002291,98.7480916 C92.7002291,93.4164642 97.0542746,89.0939515 102.425725,89.0939515 C107.797175,89.0939515 112.151079,93.4164642 112.151079,98.7480916 C112.151079,104.079719 107.797034,108.402232 102.425725,108.402232 L102.425583,108.402232 Z M102.425583,103.351748 C104.985988,103.351748 107.061935,101.29087 107.061935,98.7480916 C107.061935,96.2054536 104.985988,94.1444353 102.425725,94.1444353 C99.8653198,94.1444353 97.7893732,96.2053133 97.7893732,98.7480916 C97.7893732,101.29087 99.8653198,103.351748 102.425725,103.351748 L102.425583,103.351748 Z M15.7181601,108.402232 C10.3468513,108.402232 5.99280576,104.079859 5.99280576,98.7480916 C5.99280576,93.4164642 10.3468513,89.0939515 15.7181601,89.0939515 C21.0896103,89.0939515 25.4436558,93.4164642 25.4436558,98.7480916 C25.4436558,104.079719 21.0896103,108.402232 15.7181601,108.402232 Z M15.7181601,103.351748 C18.278565,103.351748 20.3545117,101.29087 20.3545117,98.7480916 C20.3545117,96.2054536 18.278565,94.1444353 15.7181601,94.1444353 C13.1578965,94.1444353 11.0819498,96.2053133 11.0819498,98.7480916 C11.0819498,101.29087 13.1578965,103.351748 15.7181601,103.351748 Z" id="形状" fill="#656D78"></path>
                <path d="M23.0869867,101.740458 C21.6840774,101.740458 20.5467626,100.591959 20.5467626,99.1755725 C20.5467626,97.7590433 21.6840774,96.610687 23.0869867,96.610687 L48.159422,96.610687 C49.5624724,96.610687 50.6996461,97.7590433 50.6996461,99.1755725 C50.6996461,100.591959 49.5624724,101.740458 48.159422,101.740458 L23.0869867,101.740458 Z M69.9844629,101.740458 C68.5815536,101.740458 67.4442388,100.591959 67.4442388,99.1755725 C67.4442388,97.7590433 68.5815536,96.610687 69.9844629,96.610687 L95.0568982,96.610687 C96.4598075,96.610687 97.5971223,97.7590433 97.5971223,99.1755725 C97.5971223,100.591959 96.4598075,101.740458 95.0568982,101.740458 L69.9844629,101.740458 Z" id="形状" fill="#656D78"></path>
            </g>
            <polyline id="直线-3" stroke="#979797" stroke-width="3" stroke-linecap="square" points="302 117 302 64 488 64"></polyline>
            <line x1="300.5" y1="208.426136" x2="300.5" y2="282.573864" id="直线" stroke="#979797" stroke-width="3" stroke-linecap="square"></line>
            <line x1="41.4285714" y1="282.5" x2="550.571429" y2="282.5" id="直线-2" stroke="#979797" stroke-width="3" stroke-linecap="square"></line>
            <line x1="40.5" y1="282.425926" x2="40.5" y2="327.574074" id="直线-4" stroke="#979797" stroke-width="3" stroke-linecap="square"></line>
            <line x1="189.5" y1="282.425926" x2="189.5" y2="327.574074" id="直线-5" stroke="#979797" stroke-width="3" stroke-linecap="square"></line>
            <line x1="417.5" y1="282.425926" x2="417.5" y2="327.574074" id="直线-6" stroke="#979797" stroke-width="3" stroke-linecap="square"></line>
            <line x1="551.5" y1="283.425926" x2="551.5" y2="328.574074" id="直线-6" stroke="#979797" stroke-width="3" stroke-linecap="square"></line>
        </g>
    </g>
</svg>